<svg xmlns="http://www.w3.org/2000/svg" viewBox="0 0 33.927 36" fill="#09327d"><path d="M33.76 24.556a5.633 5.633 0 0 0-1.651-3.278 3.039 3.039 0 0 0-2.588-.693V6.727a3.989 3.989 0 0 0-3.771-3.978v-.5a2.246 2.246 0 0 0-4.491 0v.5h-4.252v-.5a2.246 2.246 0 0 0-4.492 0v.5H8.264v-.5a2.246 2.246 0 0 0-4.492 0v.5A3.989 3.989 0 0 0 0 6.727v19.142a3.1 3.1 0 0 0 3.1 3.1h16.21a13.9 13.9 0 0 0 3.2 6.547 1.477 1.477 0 0 0 2.45-.416c.276-.652.5-1.241.66-1.752a.919.919 0 0 1 1.753 0c.164.519.386 1.109.659 1.753a1.473 1.473 0 0 0 1.116.881A1.489 1.489 0 0 0 29.4 36a1.463 1.463 0 0 0 1.089-.484 13.536 13.536 0 0 0 2.9-5.316 12.632 12.632 0 0 0 .371-5.644zm-11.1-22.31a.84.84 0 0 1 1.679 0V4.3a.84.84 0 1 1-1.679 0zm-8.743 0a.84.84 0 0 1 1.68 0V4.3a.84.84 0 1 1-1.68 0zm-8.743 0a.84.84 0 1 1 1.68 0V4.3a.84.84 0 1 1-1.68 0zM1.406 25.869V10.745h2.222a.703.703 0 1 0 0-1.406H1.406V6.727a2.581 2.581 0 0 1 2.366-2.569V4.3a2.246 2.246 0 1 0 4.492 0v-.151h4.251V4.3a2.246 2.246 0 1 0 4.492 0v-.151h4.251V4.3a2.246 2.246 0 1 0 4.491 0v-.142a2.581 2.581 0 0 1 2.365 2.569v2.612H9.253a.703.703 0 1 0 0 1.406h18.862v10.24a5.527 5.527 0 0 1-1.615.333 6.122 6.122 0 0 1-1.824-.4 3.533 3.533 0 0 0-3.791.36 5.628 5.628 0 0 0-1.65 3.279 11.4 11.4 0 0 0-.121 3.005H3.1a1.694 1.694 0 0 1-1.694-1.693zm28.036 8.7a.06.06 0 0 1-.06.02.069.069 0 0 1-.055-.044c-.256-.6-.463-1.15-.613-1.627a2.326 2.326 0 0 0-4.434 0 18.831 18.831 0 0 1-.613 1.626.07.07 0 0 1-.056.044.06.06 0 0 1-.06-.02 12.509 12.509 0 0 1-2.951-6.407 10.389 10.389 0 0 1 .018-3.351 4.2 4.2 0 0 1 1.146-2.435c.8-.638 1.364-.49 2.469-.123a7.315 7.315 0 0 0 2.255.472h.024a7.32 7.32 0 0 0 2.255-.472l.261-.086h.007a1.967 1.967 0 0 1 2.2.213 4.207 4.207 0 0 1 1.146 2.435 12.264 12.264 0 0 1-2.939 9.758zm0 0"/><path d="M22.252 12.085a1.367 1.367 0 0 0-1.612-.377c-3.647 1.606-6.422 7.094-7.388 9.233a10.816 10.816 0 0 0-4.26-1.495c-.043 0-.086 0-.128.007a1.793 1.793 0 0 0-1.657 1.651 1.813 1.813 0 0 0 1.334 1.952 12.406 12.406 0 0 1 5.055 3.476 1.353 1.353 0 0 0 .99.432 1.38 1.38 0 0 0 .31-.035 1.351 1.351 0 0 0 1-.92c1.421-4.524 4.982-10.087 6.447-12.269a1.369 1.369 0 0 0-.091-1.655zm-7.679 13.434A13.692 13.692 0 0 0 8.912 21.7a.414.414 0 0 1-.3-.464.39.39 0 0 1 .369-.381h.074a10.508 10.508 0 0 1 3.85 1.5 1.06 1.06 0 0 0 1.488-.5c.522-1.2 3.284-7.212 6.732-8.814-1.868 2.775-5.131 8.006-6.552 12.478zm0 0M6.442 9.339a.7.7 0 1 0 .705.7.7.7 0 0 0-.706-.7zm0 0M29.86 23.555a.7.7 0 0 0-.4.909 6.534 6.534 0 0 1 0 4.268.703.703 0 1 0 1.306.522 7.935 7.935 0 0 0 0-5.295.7.7 0 0 0-.906-.404zm0 0"/></svg>