<svg xmlns="http://www.w3.org/2000/svg" viewBox="0 0 40 33.111" fill="#fff"><path d="M33.085 17.777a20.584 20.584 0 0 0-.218-5.547 9.662 9.662 0 0 0-2.908-5.84c-2.458-1.967-4.573-1.265-6.619-.586a11.916 11.916 0 0 1-3.6.78 11.916 11.916 0 0 1-3.6-.78c-2.046-.679-4.161-1.381-6.619.586a9.66 9.66 0 0 0-2.905 5.84 23.191 23.191 0 0 0 .691 10.361 24.917 24.917 0 0 0 5.335 9.787 2.215 2.215 0 0 0 1.647.733 2.258 2.258 0 0 0 .374-.031 2.233 2.233 0 0 0 1.693-1.334c.51-1.2.921-2.295 1.222-3.247a2.27 2.27 0 0 1 4.327 0c.3.961.715 2.054 1.222 3.248a2.237 2.237 0 0 0 3.714.632c.354-.392.7-.8 1.033-1.231a7.33 7.33 0 1 0 5.211-13.37zm-1.209 13a5.771 5.771 0 0 1-3.666-1.315 5.778 5.778 0 0 1-.74-.732.781.781 0 1 0-1.194 1.008c.123.146.253.286.388.422-.316.407-.644.8-.981 1.173a.657.657 0 0 1-.6.209.672.672 0 0 1-.513-.4 34.853 34.853 0 0 1-1.17-3.108 3.833 3.833 0 0 0-7.306 0c-.286.905-.68 1.951-1.17 3.107a.673.673 0 0 1-.514.4.657.657 0 0 1-.6-.208c-4.468-4.932-6.787-12.668-5.658-18.817a8.3 8.3 0 0 1 2.348-4.9 3.754 3.754 0 0 1 2.434-.944 8.947 8.947 0 0 1 2.717.62 13.31 13.31 0 0 0 4.077.86h.027a13.312 13.312 0 0 0 4.077-.86c1.948-.646 3.356-1.113 5.15.323a8.3 8.3 0 0 1 2.348 4.9 19.037 19.037 0 0 1 .193 5.17 7.329 7.329 0 0 0-6.925 6.445.781.781 0 0 0 .683.868.806.806 0 0 0 .093.005.781.781 0 0 0 .775-.689 5.766 5.766 0 0 1 5.726-5.078c.094 0 .195 0 .308.009a5.766 5.766 0 0 1-.309 11.524zm0 0"/><path d="M16.346 15.015a.778.778 0 0 0 .146-.045.831.831 0 0 0 .135-.072.844.844 0 0 0 .119-.1.8.8 0 0 0 .1-.12.787.787 0 0 0 .072-.134.8.8 0 0 0 .045-.146.786.786 0 0 0 .016-.153.787.787 0 0 0-.06-.3.8.8 0 0 0-.072-.135.76.76 0 0 0-.1-.119.784.784 0 0 0-.119-.1.831.831 0 0 0-.135-.072.779.779 0 0 0-.146-.045.768.768 0 0 0-.305 0 .781.781 0 0 0-.146.045.832.832 0 0 0-.135.072.816.816 0 0 0-.119.1.777.777 0 0 0-.169.254.767.767 0 0 0-.045.451.8.8 0 0 0 .045.146.787.787 0 0 0 .072.134.835.835 0 0 0 .1.12.846.846 0 0 0 .119.1.832.832 0 0 0 .135.072.771.771 0 0 0 .3.06.77.77 0 0 0 .147-.013zm0 0M24.009 13.95a.8.8 0 0 0-.072-.135.792.792 0 0 0-.1-.119.776.776 0 0 0-.12-.1.787.787 0 0 0-.134-.072.8.8 0 0 0-.146-.045.776.776 0 0 0-.451.045.8.8 0 0 0-.135.072.729.729 0 0 0-.119.1.756.756 0 0 0-.1.119.819.819 0 0 0-.072.135.775.775 0 0 0-.045.146.757.757 0 0 0-.016.152.785.785 0 0 0 .229.552.766.766 0 0 0 .119.1.773.773 0 0 0 .433.131.786.786 0 0 0 .153-.015.8.8 0 0 0 .146-.045.767.767 0 0 0 .134-.072.817.817 0 0 0 .12-.1.785.785 0 0 0 .228-.552.764.764 0 0 0-.059-.3zm0 0M22.083 17.611a4.091 4.091 0 0 1-4.684 0 .782.782 0 1 0-.9 1.279 5.658 5.658 0 0 0 6.479 0 .782.782 0 0 0-.9-1.279zm0 0M8.738 5.763h.009a1.033 1.033 0 0 0-.024-2h-.019A3.975 3.975 0 0 1 5.778.862L5.757.778a1.033 1.033 0 0 0-2 0v.009A4.1 4.1 0 0 1 .789 3.752H.778a1.033 1.033 0 0 0 0 2h.006a4.1 4.1 0 0 1 2.969 2.972l.021.084a1.013 1.013 0 0 0 1.964 0 4.234 4.234 0 0 1 3-3.045zM4.766 7.051A5.659 5.659 0 0 0 2.48 4.756 5.657 5.657 0 0 0 4.746 2.5a5.528 5.528 0 0 0 2.288 2.28 5.809 5.809 0 0 0-2.268 2.271zm0 0M39.266 8.72h-.013a2.593 2.593 0 0 1-1.909-1.887l-.015-.06a.96.96 0 0 0-1.862.006 2.683 2.683 0 0 1-1.946 1.942.959.959 0 0 0 .006 1.862 2.681 2.681 0 0 1 1.94 1.94l.015.059a.946.946 0 0 0 1.833 0 2.778 2.778 0 0 1 1.973-2 .96.96 0 0 0-.023-1.86zm-2.858 2.118a4.235 4.235 0 0 0-1.186-1.19 4.239 4.239 0 0 0 1.167-1.164 4.151 4.151 0 0 0 1.186 1.184 4.353 4.353 0 0 0-1.167 1.173zm0 0M35.394 21.922c-2.331.362-3.757 2.793-4.461 4.418a6.588 6.588 0 0 0-2.5-1.26.781.781 0 0 0-.381 1.515c.533.135 2.106.725 2.346 1.627a.781.781 0 0 0 .75.58.782.782 0 0 0 .752-.571c.341-1.217 1.677-4.445 3.733-4.765a.781.781 0 0 0-.24-1.544zm0 0M26.342 26.645a.8.8 0 0 0-.072-.134.764.764 0 0 0-.1-.119.8.8 0 0 0-.119-.1.788.788 0 0 0-.134-.072.816.816 0 0 0-.146-.044.769.769 0 0 0-.305 0 .777.777 0 0 0-.4.214.743.743 0 0 0-.1.119.8.8 0 0 0-.072.134.832.832 0 0 0-.045.146.8.8 0 0 0-.016.153.779.779 0 0 0 .016.152.8.8 0 0 0 .116.281.742.742 0 0 0 .1.119.727.727 0 0 0 .119.1.775.775 0 0 0 .135.072.8.8 0 0 0 .146.045.757.757 0 0 0 .305 0 .84.84 0 0 0 .146-.045.788.788 0 0 0 .134-.072.744.744 0 0 0 .119-.1.763.763 0 0 0 .1-.119.8.8 0 0 0 .116-.281.776.776 0 0 0 .015-.152.792.792 0 0 0-.015-.153.829.829 0 0 0-.043-.144zm0 0"/></svg>