<svg xmlns="http://www.w3.org/2000/svg" viewBox="0 0 40 29.88"><path d="M38.939 19.387L29.93 14.76h-.012a1.481 1.481 0 0 0-.07-.031l-.022-.008c-.025-.008-.05-.016-.075-.022h-.014a.752.752 0 0 0-.091-.014H13.627v-2.263a.945.945 0 0 1 .944-.944H24.99a.781.781 0 0 0 0-1.563H14.572a2.509 2.509 0 0 0-2.507 2.506v2.252h-.425L5.785 7.301l.115-.237a6.207 6.207 0 0 0-.051-5.421A2.073 2.073 0 0 0 4.422.533L2.157.041a2.954 2.954 0 0 0-.1-.019 1.832 1.832 0 0 0-.2-.02A1.777 1.777 0 0 0 0 1.78v5.266c0 .015 0 .045.007.067s0 .027.006.041.007.048.012.071 0 .022.006.033c0 .027.01.054.016.08l.005.023.023.092v.012c.009.034.02.068.031.1a2.576 2.576 0 0 0 .432.81L10 20.283a2.919 2.919 0 0 0 2.3 1.11h1.2v.93a2.081 2.081 0 0 0 2.074 2.078h.343l.22 3.916h-4.88a.781.781 0 0 0 0 1.563H29a.781.781 0 0 0 0-1.563h-5.012l.22-3.916h.343a2.081 2.081 0 0 0 2.078-2.078v-.93h1.1a2.625 2.625 0 0 0 2.439-1.663l7.069 3.183a1.958 1.958 0 0 0 1.7-3.526zM1.643 1.611l.019-.01h.006l.025-.013h.006l.029-.009h.006a.209.209 0 0 1 .038 0h.01a.212.212 0 0 1 .043 0l2.261.492a.523.523 0 0 1 .358.275 4.653 4.653 0 0 1 .039 4.055l-.107.228H1.563V1.78a.214.214 0 0 1 .08-.169zM2.4 8.189h2.1l5.948 7.488a5.876 5.876 0 0 0-.359 2.191zm20.023 20.129H17.7l-.22-3.916h5.161zm2.644-5.994a.516.516 0 0 1-.515.515h-8.979a.516.516 0 0 1-.515-.515v-.93h10.009zm2.666-2.493H12.3a1.433 1.433 0 0 1-.145-.008l-.055-.008-.066-.011-.264-1.044a4.315 4.315 0 0 1 .126-2.523h16.895v1.016h-6.212a.781.781 0 0 0 0 1.563h6.209a1.059 1.059 0 0 1-1.055 1.014zm10.667 1.47a.394.394 0 0 1-.516.185l-7.53-3.385v-1.366l7.871 4.042a.4.4 0 0 1 .175.524zm0 0"/><path d="M20.175 17.734a.783.783 0 0 0-.072-.135.756.756 0 0 0-.1-.119.739.739 0 0 0-.119-.1.773.773 0 0 0-.135-.072.806.806 0 0 0-.146-.045.777.777 0 0 0-.3 0 .83.83 0 0 0-.147.045.788.788 0 0 0-.134.072.743.743 0 0 0-.119.1.77.77 0 0 0-.1.119.784.784 0 0 0-.072.135.721.721 0 0 0-.044.146.754.754 0 0 0-.016.152.806.806 0 0 0 .06.3.8.8 0 0 0 .072.134.742.742 0 0 0 .1.119.788.788 0 0 0 .553.229.773.773 0 0 0 .152-.015.809.809 0 0 0 .146-.045.792.792 0 0 0 .135-.072.825.825 0 0 0 .119-.1.761.761 0 0 0 .1-.119.8.8 0 0 0 .072-.134.75.75 0 0 0 .045-.146.763.763 0 0 0 .016-.153.752.752 0 0 0-.016-.152.74.74 0 0 0-.05-.144zm0 0"/></svg>