<svg xmlns="http://www.w3.org/2000/svg" viewBox="0 0 36 36"><path d="M26.341 19.054a9.467 9.467 0 0 0 1.187-4.6V5.939A5.946 5.946 0 0 0 21.588 0h-7.176a5.946 5.946 0 0 0-5.939 5.939v8.514a9.47 9.47 0 0 0 1.187 4.6A10.4 10.4 0 0 0 0 29.411V36h36v-6.589a10.4 10.4 0 0 0-9.659-10.357zM18 27.658l-2.724-4.074a9.537 9.537 0 0 0 5.447 0zM14.278 9.146a3.868 3.868 0 0 0 7.444 0h3.7v4.928h-14.84V9.146zm1.962-1.055A1.76 1.76 0 1 1 18 9.852a1.762 1.762 0 0 1-1.76-1.761zm8.974 8.092a7.419 7.419 0 0 1-14.428 0zM14.412 2.109h7.177a3.834 3.834 0 0 1 3.83 3.83v1.1h-3.7a3.868 3.868 0 0 0-7.444 0h-3.7v-1.1a3.834 3.834 0 0 1 3.837-3.83zm-12.3 27.3a8.283 8.283 0 0 1 8.274-8.274h.714l5.841 8.738v4.015H2.109zm31.781 4.479H19.055v-4.013l5.845-8.738h.721a8.283 8.283 0 0 1 8.274 8.274zm0 0"/></svg>