<svg xmlns="http://www.w3.org/2000/svg" viewBox="0 0 36 31.139" fill="#3292e6"><path d="M35.3 29.732h-3.6V16.294a2.1 2.1 0 0 0-2.1-2.1h-1.545v-.539a1.572 1.572 0 0 0-1.57-1.57h-1.46V2.18A2.183 2.183 0 0 0 22.845 0h-10.1a2.183 2.183 0 0 0-2.18 2.18v9.909h-1.4a1.572 1.572 0 0 0-1.57 1.57v.541H5.988a2.1 2.1 0 0 0-2.1 2.1v13.432H.7a.7.7 0 0 0 0 1.406h34.6a.7.7 0 0 0 0-1.406zM11.969 2.18a.775.775 0 0 1 .774-.774h10.1a.775.775 0 0 1 .774.774v9.909H11.969zm1.445 27.552v-4.19a.415.415 0 0 1 .414-.414H17.3v4.6zm5.289 0v-4.6h3.469a.415.415 0 0 1 .414.414v4.19zm5.289 0v-4.19a1.822 1.822 0 0 0-1.82-1.82h-8.344a1.822 1.822 0 0 0-1.82 1.82v4.19H5.3V16.294a.69.69 0 0 1 .689-.689h13.488a.7.7 0 0 0 0-1.406H9v-.539a.164.164 0 0 1 .164-.164h17.32a.164.164 0 0 1 .164.164v.54H25.1a.7.7 0 0 0 0 1.406h4.5a.69.69 0 0 1 .69.689v13.437zm0 0"/><path d="M21.574 5.021h-1.9v-1.9a.7.7 0 0 0-.7-.7h-2.358a.7.7 0 0 0-.7.7v1.9h-1.9a.7.7 0 0 0-.7.7v2.357a.7.7 0 0 0 .7.7h1.9v1.9a.7.7 0 0 0 .7.7h2.358a.7.7 0 0 0 .7-.7v-1.9h1.9a.7.7 0 0 0 .7-.7V5.725a.7.7 0 0 0-.7-.704zm-.7 2.357h-1.9a.7.7 0 0 0-.7.7v1.9h-.951v-1.9a.7.7 0 0 0-.7-.7h-1.9v-.95h1.9a.7.7 0 0 0 .7-.7v-1.9h.951v1.9a.7.7 0 0 0 .7.7h1.9zm0 0M11.777 17.363H8.332a1.162 1.162 0 0 0-1.16 1.16v2.6a1.162 1.162 0 0 0 1.16 1.16h3.445a1.162 1.162 0 0 0 1.16-1.16v-2.6a1.162 1.162 0 0 0-1.16-1.16zm-.246 3.516H8.578V18.77h2.953zm0 0M19.722 17.363h-3.445a1.162 1.162 0 0 0-1.16 1.16v2.6a1.162 1.162 0 0 0 1.16 1.16h3.445a1.162 1.162 0 0 0 1.16-1.16v-2.6a1.162 1.162 0 0 0-1.16-1.16zm-.246 3.516h-2.953V18.77h2.953zm0 0M27.667 17.363h-3.445a1.162 1.162 0 0 0-1.16 1.16v2.6a1.162 1.162 0 0 0 1.16 1.16h3.445a1.162 1.162 0 0 0 1.16-1.16v-2.6a1.162 1.162 0 0 0-1.16-1.16zm-.246 3.516h-2.953V18.77h2.953zm0 0M22.291 14.199a.7.7 0 1 0 .705.7.7.7 0 0 0-.707-.7zm0 0"/></svg>