<svg xmlns="http://www.w3.org/2000/svg" viewBox="0 0 11.8 12" fill="#fff"><path d="M8.5 7.7c-.3-.3-.6-.4-1-.4s-.7.1-1 .4l-.3.4c-.1 0-.6-.2-1.3-1-.4-.4-.8-.8-1-1.3l.4-.4c.5-.5.5-1.4 0-2L2.9 2.1c-.2-.2-.6-.4-.9-.4-.4 0-.7.1-1 .4l-.4.4c-.4.4-1 1.4-.1 3.2C1 7 1.9 8.2 2.9 9.1 4.6 10.9 6.6 12 8 12c.5 0 1.1-.2 1.5-.6l.4-.4c.5-.5.5-1.4 0-1.9L8.5 7.7zm.7 2.6l-.4.4c-.2.2-.5.3-.8.3-1.1 0-2.8-1-4.4-2.6C1.5 6.4.4 4 1.3 3.2l.4-.4c0-.1.1-.1.3-.1.1 0 .2 0 .3.1l1.3 1.3.1.1v.3c0 .1-.1.1-.1.1l-.4.5c-.6.6-.2 1.6.9 2.7.5.7 1.3 1.1 2.1 1.3.2 0 .4-.1.6-.3l.4-.4c.1-.1.2-.1.3-.1h.2c.1 0 .1.1.1.1l1.4 1.3.1.1v.3l-.1.2zM8.4 6.1c0 .3.2.5.5.5s.5-.2.5-.5c0-2-1.6-3.6-3.6-3.6-.3 0-.5.2-.5.5s.2.5.5.5c1.4-.1 2.6 1.1 2.6 2.6z"/><path d="M5.8 0c-.3 0-.5.2-.5.5 0 .1.1.3.1.3.1.1.2.2.4.2 2.8 0 5.1 2.3 5.1 5.1 0 .3.2.5.5.5s.5-.2.5-.5C11.8 2.7 9.1 0 5.8 0z"/></svg>