<svg xmlns="http://www.w3.org/2000/svg" viewBox="0 0 31.778 36" fill="#09327d"><path d="M28.726 2.824a10.076 10.076 0 0 0-12.838-.957 10.055 10.055 0 1 0-10.681 17l.239.134h7.277v2.228h-7.39v2.109h7.39v2.113H7.092v2.109h5.63v2.113h-3.87v2.109h3.871v2.109h-2.112v2.11h10.555v-2.11h-2.112v-2.113h3.871v-2.109h-3.871v-2.113h5.63v-2.109h-5.63v-2.113h7.389v-2.109h-7.389v-2.224h7.277l.238-.131a10.073 10.073 0 0 0 2.157-16.046zM16.945 33.891h-2.113v-2.113h2.113zm0-4.222h-2.113v-2.113h2.113zm0-4.222h-2.113v-2.113h2.113zm0-4.222h-2.113v-2.224h2.113zm8.835-4.337H6a7.946 7.946 0 1 1 9.2-12.887l.684.583.689-.583a7.946 7.946 0 1 1 9.207 12.886zm0 0"/></svg>