<svg xmlns="http://www.w3.org/2000/svg" viewBox="0 0 40 36.1"><path d="M40 13.675a2.4 2.4 0 0 0-2.741-2.36l-1.244.185a8.129 8.129 0 0 1-5.876-1.449l-1.782-1.264a1.512 1.512 0 0 0-1.743 0l-1.782 1.259a8.478 8.478 0 0 1-1.717.94 17.966 17.966 0 0 0-.184-4.8 8.367 8.367 0 0 0-2.531-5.06c-2.15-1.72-3.988-1.11-5.765-.52a10.1 10.1 0 0 1-3.042.661A10.1 10.1 0 0 1 8.551.606c-1.777-.59-3.616-1.2-5.765.52A8.372 8.372 0 0 0 .263 6.188 19.94 19.94 0 0 0 .856 15.1a21.409 21.409 0 0 0 4.586 8.409 2.025 2.025 0 0 0 3.363-.573c.438-1.03.791-1.968 1.05-2.787a1.827 1.827 0 0 1 3.483 0c.26.824.613 1.761 1.049 2.787a2.023 2.023 0 0 0 1.264 1.144 2.047 2.047 0 0 0 .607.092h.119a22.072 22.072 0 0 0 2.9 6.28 14.687 14.687 0 0 0 6.243 5.244 4.922 4.922 0 0 0 3.927 0c4.193-1.835 7.2-5.489 8.94-10.86A37.428 37.428 0 0 0 40 13.675zm-24.175 8.648c-.416-.98-.752-1.87-1-2.646a3.39 3.39 0 0 0-6.463 0 29.43 29.43 0 0 1-1 2.647.461.461 0 0 1-.352.277.45.45 0 0 1-.414-.142C2.815 18.27.84 11.7 1.8 6.47a6.989 6.989 0 0 1 1.966-4.123 3.092 3.092 0 0 1 2.006-.786 7.6 7.6 0 0 1 2.291.529 11.472 11.472 0 0 0 3.52.741h.027a11.468 11.468 0 0 0 3.52-.741c1.692-.561 2.81-.932 4.3.257a6.984 6.984 0 0 1 1.963 4.123 16.72 16.72 0 0 1 .1 4.984h-.017a8.346 8.346 0 0 1-.276.044l-.053.007a6.811 6.811 0 0 1-.283.033h-.011a6.45 6.45 0 0 1-.277.021h-.051q-.138.007-.276.01h-.334c-.094 0-.189-.007-.283-.013h-.052a8.614 8.614 0 0 1-.277-.023l-.053-.006c-.1-.01-.192-.022-.287-.036l-1.243-.181a2.395 2.395 0 0 0-2.741 2.36v1.503c0 .052 0 .1.006.157v.1c0 .055 0 .11.007.166v.1q0 .088.009.178v.09c0 .067.007.133.011.2v.072q.016.277.037.563a17.338 17.338 0 0 0 .022.286l.008.1.016.19.01.113.017.182c0 .04.008.08.012.12l.018.179c0 .042.009.083.013.124l.019.179c0 .042.009.085.014.127l.021.18.016.129.023.183.016.128.026.191.016.122.031.214c0 .034.009.067.015.1.014.1.029.2.045.293v.026l.052.322.016.093.039.231.021.119.038.207.025.132.038.2.027.137q.019.1.039.193l.029.141.041.193.031.14.044.2.032.138.016.069a.48.48 0 0 1-.07-.157zm13 11.936a3.351 3.351 0 0 1-2.675 0c-4.112-1.8-6.964-5.588-8.477-11.261a37.176 37.176 0 0 1-1.137-9.318.828.828 0 0 1 .355-.676l.023-.015.048-.03.027-.014.047-.023.028-.012.053-.019.024-.008q.039-.011.079-.018h.012c.023 0 .046-.007.07-.009h.107c.027 0 .054 0 .081.008l1.243.18a9.478 9.478 0 0 0 2.48.033h.041l.072-.01q.419-.055.835-.147h.012c.071-.016.142-.032.213-.05a9.886 9.886 0 0 0 3.351-1.539l1.752-1.238 1.752 1.238a9.686 9.686 0 0 0 7 1.72l1.244-.181a.833.833 0 0 1 .954.818c.014 4.912-.89 16.754-9.616 20.571zm0 0"/><path d="M32.744 19.749h-2.552a.15.15 0 0 1-.15-.15v-2.553a1.185 1.185 0 0 0-1.184-1.184h-2.745a1.185 1.185 0 0 0-1.184 1.184v2.553a.15.15 0 0 1-.149.15h-2.553a1.185 1.185 0 0 0-1.184 1.184v2.744a1.185 1.185 0 0 0 1.184 1.185h2.553a.149.149 0 0 1 .149.149v2.553a1.185 1.185 0 0 0 1.184 1.184h2.745a1.185 1.185 0 0 0 1.184-1.184v-2.553a.15.15 0 0 1 .15-.149h2.552a1.186 1.186 0 0 0 1.185-1.185v-2.744a1.186 1.186 0 0 0-1.185-1.184zm-.378 3.55h-2.174a1.714 1.714 0 0 0-1.712 1.712v2.174h-1.988v-2.174a1.714 1.714 0 0 0-1.712-1.712h-2.174v-1.988h2.174a1.714 1.714 0 0 0 1.712-1.713v-2.175h1.988v2.174a1.714 1.714 0 0 0 1.712 1.713h2.174zm0 0M5.834 11.898a10.487 10.487 0 0 1 .471-7.138.781.781 0 0 0-1.362-.765 11.81 11.81 0 0 0-.624 8.284.782.782 0 0 0 1.516-.381zm0 0M6.091 13.91a.781.781 0 0 0-.782.781.781.781 0 1 0 .782-.783zm0 0"/></svg>